<svg width="180" height="32" viewBox="0 0 180 32" fill="none" xmlns="http://www.w3.org/2000/svg">
<path opacity="0.7" d="M45.463 9.472H50.441C52.6577 9.472 54.374 10.061 55.59 11.239C56.8187 12.417 57.433 14.0763 57.433 16.217C57.433 18.3703 56.8187 20.0423 55.59 21.233C54.374 22.411 52.6577 23 50.441 23H45.463V9.472ZM50.289 21.005C53.405 21.005 54.963 19.409 54.963 16.217C54.963 13.0503 53.405 11.467 50.289 11.467H47.914V21.005H50.289ZM69.3417 13.405V23H67.0047V21.461C66.7133 21.993 66.2953 22.411 65.7507 22.715C65.206 23.0063 64.5853 23.152 63.8887 23.152C63.0527 23.152 62.3117 22.9493 61.6657 22.544C61.0197 22.1387 60.5193 21.5623 60.1647 20.815C59.81 20.0677 59.6327 19.2 59.6327 18.212C59.6327 17.224 59.81 16.35 60.1647 15.59C60.532 14.8173 61.0387 14.222 61.6847 13.804C62.3307 13.3733 63.0653 13.158 63.8887 13.158C64.5853 13.158 65.206 13.31 65.7507 13.614C66.2953 13.9053 66.7133 14.317 67.0047 14.849V13.405H69.3417ZM64.5347 21.29C65.32 21.29 65.928 21.0177 66.3587 20.473C66.7893 19.9283 67.0047 19.162 67.0047 18.174C67.0047 17.1607 66.7893 16.3817 66.3587 15.837C65.928 15.2923 65.3137 15.02 64.5157 15.02C63.7303 15.02 63.116 15.305 62.6727 15.875C62.242 16.4323 62.0267 17.2113 62.0267 18.212C62.0267 19.2 62.242 19.96 62.6727 20.492C63.116 21.024 63.7367 21.29 64.5347 21.29ZM75.8433 23.152C74.108 23.152 72.7273 22.7467 71.7013 21.936L72.3663 20.264C73.3923 21.024 74.564 21.404 75.8813 21.404C76.4513 21.404 76.8883 21.309 77.1923 21.119C77.509 20.929 77.6673 20.663 77.6673 20.321C77.6673 20.0297 77.5597 19.8017 77.3443 19.637C77.129 19.4597 76.7617 19.3077 76.2423 19.181L74.6463 18.82C72.8983 18.44 72.0243 17.547 72.0243 16.141C72.0243 15.5583 72.189 15.0453 72.5183 14.602C72.8477 14.146 73.31 13.7913 73.9053 13.538C74.5007 13.2847 75.191 13.158 75.9763 13.158C76.6603 13.158 77.319 13.2657 77.9523 13.481C78.5857 13.6837 79.143 13.9813 79.6243 14.374L78.9213 15.989C77.9587 15.2797 76.9707 14.925 75.9573 14.925C75.4127 14.925 74.9883 15.0263 74.6843 15.229C74.3803 15.4317 74.2283 15.7103 74.2283 16.065C74.2283 16.3437 74.317 16.5653 74.4943 16.73C74.6843 16.8947 75.001 17.034 75.4443 17.148L77.0783 17.509C78.0283 17.7243 78.7187 18.06 79.1493 18.516C79.5927 18.9593 79.8143 19.542 79.8143 20.264C79.8143 21.1507 79.4597 21.8537 78.7503 22.373C78.041 22.8923 77.072 23.152 75.8433 23.152ZM87.7379 13.158C90.0306 13.158 91.1769 14.4753 91.1769 17.11V23H88.8019V17.224C88.8019 16.464 88.6562 15.913 88.3649 15.571C88.0736 15.2163 87.6239 15.039 87.0159 15.039C86.2939 15.039 85.7112 15.2733 85.2679 15.742C84.8246 16.198 84.6029 16.806 84.6029 17.566V23H82.2469V9.016H84.6029V14.792C84.9322 14.2727 85.3692 13.8737 85.9139 13.595C86.4586 13.3037 87.0666 13.158 87.7379 13.158ZM99.5671 13.158C100.403 13.158 101.138 13.367 101.771 13.785C102.417 14.1903 102.917 14.7667 103.272 15.514C103.627 16.2613 103.804 17.129 103.804 18.117C103.804 19.105 103.62 19.9853 103.253 20.758C102.898 21.518 102.398 22.107 101.752 22.525C101.119 22.943 100.39 23.152 99.5671 23.152C98.8578 23.152 98.2245 23 97.6671 22.696C97.1225 22.392 96.7108 21.9677 96.4321 21.423V23H94.0951V9.016H96.4511V14.849C96.7425 14.317 97.1605 13.9053 97.7051 13.614C98.2498 13.31 98.8705 13.158 99.5671 13.158ZM98.9401 21.29C99.7255 21.29 100.333 21.0113 100.764 20.454C101.195 19.8967 101.41 19.1177 101.41 18.117C101.41 17.129 101.195 16.369 100.764 15.837C100.333 15.2923 99.7191 15.02 98.9211 15.02C98.1231 15.02 97.5088 15.2923 97.0781 15.837C96.6475 16.3817 96.4321 17.1543 96.4321 18.155C96.4321 19.1683 96.6475 19.9473 97.0781 20.492C97.5088 21.024 98.1295 21.29 98.9401 21.29ZM110.628 23.152C109.653 23.152 108.792 22.9493 108.044 22.544C107.31 22.1387 106.74 21.5623 106.334 20.815C105.942 20.055 105.745 19.1683 105.745 18.155C105.745 17.1417 105.942 16.2613 106.334 15.514C106.74 14.754 107.31 14.1713 108.044 13.766C108.792 13.3607 109.653 13.158 110.628 13.158C111.591 13.158 112.44 13.3607 113.174 13.766C113.909 14.1713 114.473 14.754 114.865 15.514C115.271 16.2613 115.473 17.1417 115.473 18.155C115.473 19.1683 115.271 20.055 114.865 20.815C114.473 21.5623 113.909 22.1387 113.174 22.544C112.44 22.9493 111.591 23.152 110.628 23.152ZM110.609 21.29C111.42 21.29 112.034 21.0303 112.452 20.511C112.883 19.979 113.098 19.1937 113.098 18.155C113.098 17.129 112.883 16.35 112.452 15.818C112.022 15.2733 111.414 15.001 110.628 15.001C109.83 15.001 109.216 15.2733 108.785 15.818C108.355 16.35 108.139 17.129 108.139 18.155C108.139 19.1937 108.348 19.979 108.766 20.511C109.197 21.0303 109.811 21.29 110.609 21.29ZM127.098 13.405V23H124.761V21.461C124.47 21.993 124.052 22.411 123.507 22.715C122.963 23.0063 122.342 23.152 121.645 23.152C120.809 23.152 120.068 22.9493 119.422 22.544C118.776 22.1387 118.276 21.5623 117.921 20.815C117.567 20.0677 117.389 19.2 117.389 18.212C117.389 17.224 117.567 16.35 117.921 15.59C118.289 14.8173 118.795 14.222 119.441 13.804C120.087 13.3733 120.822 13.158 121.645 13.158C122.342 13.158 122.963 13.31 123.507 13.614C124.052 13.9053 124.47 14.317 124.761 14.849V13.405H127.098ZM122.291 21.29C123.077 21.29 123.685 21.0177 124.115 20.473C124.546 19.9283 124.761 19.162 124.761 18.174C124.761 17.1607 124.546 16.3817 124.115 15.837C123.685 15.2923 123.07 15.02 122.272 15.02C121.487 15.02 120.873 15.305 120.429 15.875C119.999 16.4323 119.783 17.2113 119.783 18.212C119.783 19.2 119.999 19.96 120.429 20.492C120.873 21.024 121.493 21.29 122.291 21.29ZM135.253 13.177C135.621 13.177 135.937 13.2277 136.203 13.329L136.184 15.495C135.779 15.3303 135.361 15.248 134.93 15.248C134.12 15.248 133.499 15.4823 133.068 15.951C132.65 16.4197 132.441 17.0403 132.441 17.813V23H130.085V16.122C130.085 15.1087 130.035 14.203 129.933 13.405H132.156L132.346 15.096C132.587 14.4753 132.967 14.0003 133.486 13.671C134.006 13.3417 134.595 13.177 135.253 13.177ZM146.917 9.016V23H144.58V21.461C144.289 21.993 143.871 22.411 143.326 22.715C142.781 23.0063 142.161 23.152 141.464 23.152C140.641 23.152 139.906 22.943 139.26 22.525C138.614 22.107 138.107 21.518 137.74 20.758C137.385 19.9853 137.208 19.105 137.208 18.117C137.208 17.129 137.385 16.2613 137.74 15.514C138.095 14.7667 138.595 14.1903 139.241 13.785C139.887 13.367 140.628 13.158 141.464 13.158C142.148 13.158 142.756 13.3037 143.288 13.595C143.833 13.8737 144.251 14.2727 144.542 14.792V9.016H146.917ZM142.091 21.29C142.876 21.29 143.484 21.0177 143.915 20.473C144.358 19.9283 144.58 19.1557 144.58 18.155C144.58 17.1543 144.365 16.3817 143.934 15.837C143.503 15.2923 142.895 15.02 142.11 15.02C141.312 15.02 140.691 15.2923 140.248 15.837C139.817 16.369 139.602 17.129 139.602 18.117C139.602 19.1177 139.817 19.8967 140.248 20.454C140.691 21.0113 141.306 21.29 142.091 21.29ZM164.429 23L158.14 16.673V23H155.689V9.472H158.14V15.533L164.182 9.472H167.127L160.553 15.97L167.431 23H164.429ZM168.572 13.405H170.928V23H168.572V13.405ZM171.061 9.054V11.391H168.42V9.054H171.061ZM176.947 15.191V19.485C176.947 20.6123 177.473 21.176 178.524 21.176C178.815 21.176 179.132 21.1253 179.474 21.024V22.905C179.056 23.057 178.549 23.133 177.954 23.133C176.865 23.133 176.029 22.829 175.446 22.221C174.863 21.613 174.572 20.739 174.572 19.599V15.191H172.729V13.405H174.572V11.068L176.947 10.27V13.405H179.493V15.191H176.947Z" fill="#A4A6B3"/>
<circle cx="16" cy="16" r="16" fill="#3751FF"/>
<path d="M11 10C11 9.44772 11.4477 9 12 9H15.9905C18.2127 9 19.9333 9.60955 21.1524 10.8287C22.3841 12.0478 23 13.765 23 15.9803C23 18.2088 22.3841 19.9391 21.1524 21.1713C19.9333 22.3904 18.2127 23 15.9905 23H12C11.4477 23 11 22.5523 11 22V10Z" fill="url(#paint0_linear_4403_2)"/>
<defs>
<linearGradient id="paint0_linear_4403_2" x1="11" y1="9" x2="23" y2="23" gradientUnits="userSpaceOnUse">
<stop stop-color="white" stop-opacity="0.7"/>
<stop offset="1" stop-color="white"/>
</linearGradient>
</defs>
</svg>
